<?xml version="1.0" encoding="utf-8" ?>
<svg xmlns="http://www.w3.org/2000/svg" xmlns:xlink="http://www.w3.org/1999/xlink" width="116" height="116">
	<path transform="scale(0.113281 0.113281)" d="M500.704 5.78737C509.713 4.78982 518.996 5.76678 528.034 5.89318C596.63 6.8526 664.756 23.9237 727.149 51.9972C764.253 68.6921 799.274 91.2854 830.596 117.154L853.982 137.313L883.27 167.628C910.359 197.346 934.674 230.546 952.166 266.869C959.064 281.191 966.742 295.442 972.288 310.385L974.313 315.422L978.731 327.254L991.735 368.6L999.11 399.511C1002.38 416.138 1004.55 432.888 1006.07 449.755L1007.33 461.164L1008.18 503.625C1008.51 519.835 1007.6 536.128 1006.21 552.25L1001.1 598.15C992.447 652.908 975.786 706.987 949.342 755.869C939.731 773.635 928.355 790.762 916.52 807.121C904.474 823.773 891.917 840.073 877.653 854.899C812.934 922.165 730.038 971.324 639.464 994.25L607.296 1001.46C578.887 1006.41 550.187 1008.57 521.375 1009.1L516.792 1009.37C497.161 1010.12 476.774 1008.41 457.236 1006.42C395.139 1000.07 333.053 983.636 277.689 954.297C267.544 948.922 258.031 942.703 248.253 936.729C221.26 920.238 195.91 902.039 172.721 880.465C76.73 791.163 20.7066 665.239 16.2071 534.478C14.0726 472.447 18.5986 409.553 37.0995 350C47.3526 316.996 61.6004 285.736 78.5292 255.656C97.7131 221.569 120.405 189.43 147.17 160.831C183.423 122.093 225.999 88.283 272.854 63.25C305.396 45.8642 340.23 32.7387 375.856 23.3195C400.085 16.9134 424.647 11.4143 449.603 8.71787C466.51 6.89129 483.724 6.34871 500.704 5.78737ZM502.337 51.7224C477.207 52.5749 451.903 54.1093 427.069 58.3177C348.507 71.631 275.202 106.949 214.735 158.721C201.135 170.365 188.455 183.017 176.238 196.088C139.671 235.211 109.51 282.963 90.2353 332.906C66.9471 393.248 57.4258 459.611 59.6559 524.118L63.1912 568.977C63.6919 573.015 63.7353 577.219 64.587 581.184L76.2086 636.718L78.7816 645.812C79.373 648.003 79.9978 650.348 80.8122 652.455L85.037 665.5L88.132 674.061C90.1511 681.213 93.4874 688.837 96.6173 695.577C104.267 712.05 111.362 728.506 120.555 744.25C136.57 771.676 155.171 798.093 176.492 821.673C187.393 833.729 199.445 844.81 211.682 855.474C248.405 887.476 290.732 914.77 336.5 932.008L370 943.983C407.431 955.839 447.157 962.152 486.25 964.506C497.961 965.211 510.398 966.232 522.062 965.129C544.469 964.149 567.348 963.657 589.5 959.893C609.273 956.532 629.172 952.243 648.373 946.371C722.999 923.551 792.376 880.748 845.092 823.074C858.9 807.968 872.245 792.05 884.034 775.314C892.908 762.715 900.529 749.462 907.991 736C925.056 705.214 939.301 672.774 948.352 638.689C956.007 609.859 960.238 580.387 962.595 550.692C964.36 528.442 965.327 505.964 964.399 483.638C960.287 384.754 925.414 288.412 862.12 211.956C849.788 197.059 837.015 183.079 822.62 170.113C780.385 132.071 733.265 100.539 680 80.0914C646.867 67.3722 611.295 59.2664 576.121 55.0438C551.718 52.1142 526.909 50.5327 502.337 51.7224Z"/>
	<path transform="scale(0.113281 0.113281)" d="M405.487 564.046L456.14 563.977L479.44 563.975C482.489 563.981 486.476 563.473 489.368 564.306C493.426 565.476 497.745 568.706 499.865 572.361L500.25 573.043C500.838 574.043 501.477 575.016 501.801 576.145C502.452 578.415 502.299 581.572 502.371 583.941L502.357 604.153L502.241 651.008L502.287 754.666L502.344 809.504C502.236 813.859 502.373 818.117 500.414 822.116C497.845 827.362 493.313 830.046 487.978 831.874C473.76 834.418 458.236 832.09 443.824 832.048C435.473 832.023 427.047 833.101 418.75 832.948C414.375 832.868 406.724 833.065 402.75 831.382C397.898 829.328 394.332 825.657 392.439 820.72C391.609 818.557 391.046 816.066 390.939 813.75C390.373 801.498 391.138 788.911 391.295 776.627L391.423 719.792L391.472 627.479L391.535 580C391.599 577.862 391.762 575.593 392.692 573.636C395.295 568.158 400.203 566.091 405.487 564.046Z"/>
	<path transform="scale(0.113281 0.113281)" d="M270.355 525.67L289.836 525.931L327.74 525.947L339.963 525.808C345.537 525.531 351.43 524.942 356.952 525.841L357.75 525.981L359.188 526.205C363.044 526.963 367.195 530.223 369.289 533.471C370.598 535.502 371.84 537.63 371.915 540.092L371.506 600.02L371.394 734.393L371.47 794.178L371.497 810.275C371.499 813.156 371.801 816.409 371.188 819.213L371.06 819.75C370.638 821.614 369.869 823.334 368.75 824.899C365.894 828.892 360.875 831.691 356.109 832.585L355.586 832.712C348.214 834.183 338.946 832.586 331.308 832.56L293.347 832.531C285.249 832.544 277.139 833.141 269.084 831.93C266.473 831.538 263.835 830.02 261.75 828.47C258.189 825.822 255.989 821.219 255.598 816.847C255.143 811.767 255.481 806.321 255.478 801.203L255.498 772.361L255.473 681.339L255.407 579.253C255.376 566.697 253.892 553.664 254.56 541.175C254.735 537.907 255.876 534.691 258.051 532.218C261.319 528.504 265.425 526.081 270.355 525.67Z"/>
	<path transform="scale(0.113281 0.113281)" d="M672.784 397.721C678.833 397.3 685.073 397.693 691.138 397.763L723.237 397.964L743.698 397.547C747.177 397.499 750.88 397.244 754.314 397.854L755 397.985L756.877 398.312C760.637 399.353 765.315 403.562 767.028 407.05L767.25 407.531L767.647 408.346L767.987 409.25C768.384 410.247 768.768 411.17 768.881 412.25C769.471 417.872 769.009 423.975 769.012 429.648L769.011 464.529L769.011 578.74L768.99 742.096L769.049 788.252C769.138 796.085 769.86 803.95 769.453 811.791C769.217 816.355 767.821 821.672 764.904 825.254C761.328 829.643 756.402 831.629 750.875 832.048L697.011 832.056C687.283 832.102 677.591 833.16 667.888 831.797C665.05 831.399 662.445 830.516 660.154 828.748C656.17 825.672 654.109 821.238 653.592 816.313C652.878 809.517 653.41 802.801 653.471 796L653.534 766.327L653.87 654.5L653.546 489.069L653.485 442.163L653.567 414.422C653.778 409.854 654.759 406.583 657.787 403.033C661.743 398.395 667.137 398.071 672.784 397.721Z"/>
	<path transform="scale(0.113281 0.113281)" d="M537.21 300.728L584.056 300.654L605.278 300.464C610.967 300.394 616.874 299.92 622.365 301.617C626.166 302.792 629.822 305.081 631.698 308.705L631.973 309.25L632.488 310.122C633.358 311.765 633.311 314.668 633.322 316.493L633.334 641.109L633.382 755.996L633.5 815C633.436 816.594 633.109 818.154 632.595 819.663C630.941 824.517 627.653 827.667 623.098 829.93L622.25 830.34C619.048 831.923 616.886 832.08 613.375 832.074C601.681 832.882 589.951 832.273 578.238 832.386C564.313 832.521 549.046 834.521 535.359 831.833C532.506 831.273 529.519 829.463 527.382 827.518C523.679 824.15 520.844 818.665 520.158 813.724C519.472 808.789 520.016 803.293 520.187 798.317L520.362 780.682L520.369 694.876L519.548 474.123L519.549 389.469L518.915 334.792C518.427 326.283 516.589 312.893 522.799 306.26C526.665 302.13 531.791 300.866 537.21 300.728Z"/>
</svg>
