<?xml version="1.0" encoding="UTF-8" standalone="no" ?>
<!DOCTYPE svg PUBLIC "-//W3C//DTD SVG 1.1//EN" "http://www.w3.org/Graphics/SVG/1.1/DTD/svg11.dtd">
<svg xmlns="http://www.w3.org/2000/svg" xmlns:xlink="http://www.w3.org/1999/xlink" version="1.1" width="620" height="350" viewBox="0 0 620 350" xml:space="preserve">
<desc>Created with Fabric.js 3.6.6</desc>
<defs>
</defs>
<g transform="matrix(1 0 0 1 692.3 162.17)"  >
<path style="stroke: rgb(0,0,0); stroke-width: 1; stroke-dasharray: none; stroke-linecap: round; stroke-dashoffset: 0; stroke-linejoin: round; stroke-miterlimit: 10; fill: none; fill-rule: nonzero; opacity: 1;"  transform=" translate(-764.38, -210)" d="M 764.374 210 L 764.376 210" stroke-linecap="round" />
</g>
<g transform="matrix(1 0 0 1 548.55 150.92)"  >
<path style="stroke: rgb(0,0,0); stroke-width: 1; stroke-dasharray: none; stroke-linecap: round; stroke-dashoffset: 0; stroke-linejoin: round; stroke-miterlimit: 10; fill: none; fill-rule: nonzero; opacity: 1;"  transform=" translate(-620.63, -198.75)" d="M 620.624 198.75 L 620.626 198.75" stroke-linecap="round" />
</g>
<g transform="matrix(1.34 0 0 1.34 310.89 162.84)"  >
<g style=""   >
		<g transform="matrix(0.59 0 0 0.59 0 0)"  >
<path style="stroke: rgb(0,0,0); stroke-opacity: 0.74; stroke-width: 1; stroke-dasharray: none; stroke-linecap: butt; stroke-dashoffset: 0; stroke-linejoin: miter; stroke-miterlimit: 4; fill: rgb(0,0,0); fill-rule: nonzero; opacity: 1;"  transform=" translate(-550.07, -581.83)" d="m 480.00939 384.9375 c -27.9226 -0.003 -55.2726 0.99843 -79.7187 3.6875 c -41.9203 2.8582 -51.3655 22.59688 -56.8438 30.21875 L 320.94689 457 c -31.6783 -12.14735 -90.5842 -30.98562 -124.4062 -57.78125 c -6.9073 -6.19279 -7.4078 -8.27456 -11.2188 -6.25 c -4.0278 3.04732 -1.75 8.0625 -1.75 8.0625 c 15.0056 45.01665 42.7813 65.40625 42.7813 65.40625 c 0 0 -11.7074 3.00684 -22.1875 0.625 c -10.68 -2.39755 -15.4676 -3.52787 -17.3438 0.40625 c -0.7465 1.56541 0.6951 4.00825 3.9375 5.90625 l 36 21.40625 c 0 0 3.1623 2.58442 -1.125 3.65625 c -18.5187 3.93002 -29 4.96875 -29 4.96875 c -4.8827 0.95274 -5.8227 5.21487 -2.25 7.65625 l 19.3438 13.3125 c 0 0 3.7442 2.10634 -0.7813 4.25 l -37.8437 22.875 c -3.5369 1.85263 -3.1563 4.875 -3.1563 4.875 c -0.8421 3.53685 62.0648 -7.12792 124.4688 4.78125 c -4.0421 114.52632 38.0625 110.5 38.0625 110.5 l 28.2812 0.78125 c 0 0 22.2254 -58.4921 89.5938 -67.25 c 5.205 -1.48715 35.3517 -1.99936 50 4.3125 c 0 0 5.5937 2.58442 5.5937 3.65625 c 0.3573 2.8582 -7.4302 1.75032 -11.0625 4.90625 c -0.8931 0.89319 -2.0486 4.54136 0.75 5.375 l 26.0938 5.1875 c 17.084 3.98221 30.66 22.84346 36.4687 31.6875 c 0.8053 1.22537 -4.0524 2.56577 -3.2187 5.78125 c 0.9527 2.02455 8.375 4.96875 8.375 4.96875 c 3.6918 1.90546 6.0625 7.03125 6.0625 7.03125 c 0.9527 0.71455 2.0631 9.70771 3.9688 11.375 c 2.9764 2.02456 11.8613 6.37343 12.7812 8.375 c 0 0 9.8054 12.01182 21 12.25 c 7.4969 -0.0138 11.7864 0.89214 22.1875 -0.59375 c 1.8445 0.0397 6.1337 -0.15672 9.5 0.6875 c 0 0 15.2422 2.94775 18.8125 -0.40625 c 3.7564 -2.9843 5.3438 -9.8125 5.3438 -9.8125 c -0.001 0 7.3686 -24.55118 20.4687 -35.03125 c 13.8694 -11.09554 41.5246 -26.27613 80.5937 -18.53125 c 35.0354 6.94505 55.957 43.12485 57.7813 49.75 c 0.8643 5.4691 6.4824 11.45713 17.8437 12.3125 c 8.9176 0.67137 22.9376 0.34375 22.9376 0.34375 c 13.6413 0.8421 22.1524 -4.63183 23.7812 -11.5625 c 1.5158 -6.56842 3.837 -13.38728 17.375 -28.59375 c 13.6551 -15.33801 19.7641 -39.62968 10.6562 -53.6875 c 2.3587 -33.68421 -3.7812 -45.34375 -3.7812 -45.34375 c -5.0527 -15.83158 -23.1562 -34.28125 -23.1562 -34.28125 l -40.0938 -87.9375 c 0 0 3.05 -5.06776 -1.75 -12.5625 c 0 0 -7.6002 -14.33056 -59.6562 -26.53125 c -22.7378 -5.55789 -117.9401 -15.87829 -157.6876 -17.5625 c -41.557 -2.21053 -97.0057 -5.80751 -150.3125 -5.8125 z m -109.5625 35.46875 c 1.0023 0.0102 1.8125 0.15625 1.8125 0.15625 l 287.5625 12.65625 c 3.6767 0.2626 4 4.46875 4 4.46875 l -5 155.40625 c 0.5254 17.06904 7.4376 23.375 7.4376 23.375 c 2.1005 3.15121 10.3795 6.64415 14.8437 5.59375 c 53.5705 -0.7878 75.25 1.90625 75.25 1.90625 c 24.6844 0.7878 57.0026 19.99548 66.7187 31.8125 c 11.0294 14.96824 14.9804 21.52823 17.3438 29.40625 c 0.4178 1.20696 12.9062 0.65625 12.9062 0.65625 c 1.879 0.0916 2.3453 -0.20442 2.2813 -2.09375 l -2.1875 -128.1875 l -174.9062 1.5 c -13.2808 0.028 -14.3424 -7.62366 -8.6563 -8.3125 l 164.25 -1.71875 c 15.2308 0 28.0545 -1.95261 32.7813 4.875 c 0 0 32.2799 40.0416 35.5624 61.96875 c 0 0 1.1394 4.5121 -3.7187 5.5625 c -3.4352 -0.18569 -7.6875 -11.8125 -7.6875 -11.8125 c -1.313 -4.46421 -14.0469 -27.83292 -22.1875 -39.78125 c -1.6189 -2.45452 -5.363 -8.97409 -6.1563 -4.09375 l 2.9063 128.125 c 0.022 0.95828 0.2516 2.25284 -1.1563 2.40625 l -24.9374 0.5 c -1.6231 -0.31552 -3.0631 -0.5689 -3.5313 -1.8125 c 0 0 -6.207 -22.87905 -36.4063 -44.9375 c -11.5543 -7.61541 -30.752 -15.0872 -41.7812 -15.875 c -10.2414 -1.313 -55.0958 -2.70666 -66.125 -1.65625 c 0 0 -19.5021 3.21622 -30.5312 -6.5 c -9.0834 -9.61018 -11.3148 -22.40459 -11.2188 -40.1875 l 5.9062 -140.21875 c 0 0 0.3133 -1.96245 -1.6562 -2.09375 l -283.9063 -13.6875 c 0 0 -3.6875 0.17691 -3.6875 -4.8125 c 0 -2.21569 2.2046 -2.61084 3.875 -2.59375 z M 803.41569 447.5 c 2.9209 0.3716 3.6807 0.59958 4.7812 3.5625 l 39.875 81.21875 c 1.0714 2.54704 0.6975 3.45294 -2.375 3.9375 l -14.4062 0 c -2.4873 0 -4.5367 -0.77449 -5.5938 -3.21875 l -37.75 -82.125 c -1.0634 -2.21694 -0.9164 -3.268 2.8438 -3.125 l 12.625 -0.25 z m 28.5938 0 c 2.9204 0.3716 3.6491 0.59958 4.75 3.5625 l 39.9062 81.21875 c 1.0708 2.54704 0.6972 3.45294 -2.375 3.9375 l -11.0938 0 c -2.4873 0 -3.0994 0.19426 -4.1562 -2.25 L 819.85319 450.875 c -1.0641 -2.21694 -0.8852 -3.268 2.875 -3.125 l 9.2813 -0.25 z m -60.875 0.71875 c 2.6071 0.15205 2.9025 0.80702 4.0624 2.0625 l 38.5938 82.96875 c 0.8086 2.60894 0.2605 3.47069 -2.1562 3.5625 l -135.75 0 c -2.5051 0.2288 -2.1391 -0.27043 -2.0938 -2.5625 l 1.5938 -81.75 c -0.1803 -2.75967 -0.5098 -4.19842 4.3124 -3.8125 l 91.4376 -0.46875 z m -224.5 96.5625 c 1.2083 0.0153 2.6048 0.16669 4.2187 0.4375 c 0.8184 0.13732 84.8825 2.44091 85.6563 2.4375 c 2.9597 -0.013 6.5043 1.46764 6.5312 3.96875 l 0 0.0312 c 0.5252 3.07227 -3.2022 4.30836 -6.875 3.78125 c -0.6619 -0.095 -84.6017 -2.09375 -85.3125 -2.09375 c -4.931 0 -12.7442 -1.81017 -11.5625 -5.375 c 0.4079 -1.23038 2.1072 -3.25367 7.3438 -3.1875 z m -81.4063 76.875 c -48.0957 0 -87.0938 34.91958 -87.0938 77.96875 c 0 43.04919 38.9981 77.9375 87.0938 77.9375 c 48.0957 0 87.0937 -34.88831 87.0937 -77.9375 l 0 -0.53125 c -0.3159 -42.84748 -39.2223 -77.4375 -87.0937 -77.4375 z m 436.9375 8.28125 c 0.1663 -0.009 0.3199 -0.0149 0.4688 0 c 1.6668 0 6.1826 7.15675 3.5624 17.875 c -6.1924 19.29285 -11.6562 15.46875 -11.6562 15.46875 c -2.62 -1.4291 -3.3625 -8.85187 -1.2188 -19.09375 c 2.01 -11.16485 6.349 -14.12185 8.8438 -14.25 z m -388.5 12.6875 c 0.8945 -0.0164 1.7826 0.22322 2.4062 0.78125 c 9.7162 7.22151 19.5487 22.99573 22.4376 34.15625 c 1.7069 6.03981 -6.1616 9.05166 -8.6563 4.71875 c 0 0 -4.2105 -16.54764 -9.5938 -22.71875 c 0 0 -5.6361 -5.91079 -9.3125 -10.375 c -2.8557 -4.03748 0.035 -6.51326 2.7188 -6.5625 z m 115.75 9.25 l 13.8125 19.625 l 4.6563 6.3125 c 2.8572 2.73911 11.3076 8.34084 8.6874 20.25 c 0 1.54819 -5.2436 7.74595 -18.3437 2.625 c -4.1683 -1.78638 -6.0754 -1.77598 -8.2187 -7.96875 c 0 0 -4.2634 -11.90611 -8.3126 -16.3125 c 0 0 -5.3648 -5.35806 -4.5312 -6.90625 l 12.25 -17.625 z m 115.375 2.75 c -38.0878 0 -68.9688 27.76103 -68.9688 62.03125 c 0.0005 34.27022 30.881 62.0625 68.9688 62.0625 c 38.0878 0 68.9688 -27.79228 68.9688 -62.0625 l 0 -0.40625 c -0.2506 -34.10965 -31.0586 -61.625 -68.9688 -61.625 z m -279.4063 5.34375 c 24.5944 0 44.5877 17.57803 44.75 39.375 l 0 0.28125 c 0 21.89957 -20.0404 39.65625 -44.75 39.65625 c -24.7095 0 -44.75 -17.75668 -44.75 -39.65625 c 0 -21.89958 20.0405 -39.65625 44.75 -39.65625 z m 112.2501 9.15625 l 21.0624 0.125 c 3.4546 0.11909 9.054 2.15611 12.0313 6.5625 l 10.375 19.875 c 1.4291 2.50093 0.1589 4.8125 -2.9375 4.8125 c 0 0 -11.0709 0.48399 -12.5 -0.46875 c 0 0 -3.6147 -1.97032 -7.1875 -5.78125 c -4.5255 -4.04912 -20.8437 -25.125 -20.8437 -25.125 z m -122.6251 3.4375 c -0.427 0.013 -0.8596 0.0676 -1.3125 0.125 c -5.7551 0.73004 -10.1971 5.11014 -12.2187 10.625 c -1.5756 4.29813 -0.02 11.28125 5.7812 11.28125 c 7.9841 0.0631 13.7607 -6.9641 15.2188 -11.28125 c 2.3388 -6.24518 -1.0632 -10.94537 -7.4688 -10.75 z m 22.9688 2.375 c -5.8012 0 -7.3569 6.98312 -5.7813 11.28125 c 2.0217 5.51486 6.4637 9.92621 12.2188 10.65625 c 7.2455 0.9191 11.3072 -3.99472 8.8125 -10.65625 c -1.4581 -4.31715 -7.266 -11.34435 -15.25 -11.28125 z m 303.8437 3.53125 c 4.9036 0.20643 8.1029 5.17131 11.0626 8.9375 c 3.5276 5.15247 5.7896 12.0625 1.6874 12.0625 c -4.1016 0 -5.4646 -2.38248 -8.9062 -6.65625 c -4.1012 -5.09265 -9.5028 -11.15583 -4.8438 -14.3125 c 0.3429 -0.0303 0.6733 -0.045 1 -0.0312 z m 133.9376 1.59375 c -2.1703 0.10155 -4.6844 0.7636 -7.5626 2.15625 c -1.8565 1.11412 -4.8142 4.43708 -5 7.59375 c 0 0 -1.4761 7.42982 -11.875 9.84375 c -2.971 1.29981 -4.2703 5.57882 -3.1562 7.25 c 0 0 3.6943 6.50725 7.5938 7.25 c 0 0 21.5485 3.71863 29.7187 -9.09375 c 0 0 4.8129 -9.47334 1.6563 -16.34375 c -1.393 -4.31722 -4.8646 -8.96089 -11.375 -8.65625 z m -518.9688 1.21875 c 2.9864 0.0163 6.4779 2.24341 6.0937 6.375 c -5.9222 15.08204 2.5062 33.70297 12.7188 47.9375 c 2.1795 3.26518 -1.966 7.84742 -7.0938 4.46875 c -8.7971 -7.48412 -20.7144 -30.34629 -15.5937 -56.34375 c 0.4848 -1.67444 2.0831 -2.44731 3.875 -2.4375 z m 350.6875 2 c 20.6822 0 37.4885 14.83775 37.625 33.25 l 0 0.25 c 0 18.49892 -16.8459 33.46875 -37.625 33.46875 c -20.7791 0 -37.625 -14.96983 -37.625 -33.46875 c 0 -18.49892 16.8459 -33.5 37.625 -33.5 z M 737.25949 691.5 c -0.4272 0.013 -0.8597 0.0676 -1.3126 0.125 c -5.755 0.73004 -10.197 5.11014 -12.2187 10.625 c -1.5756 4.29813 -0.02 11.3125 5.7813 11.3125 c 7.9838 0.0631 13.7606 -6.99535 15.2187 -11.3125 c 2.3388 -6.24518 -1.0633 -10.94537 -7.4687 -10.75 z m 22.9687 2.375 c -5.8012 0 -7.3567 6.98312 -5.7813 11.28125 c 2.0218 5.51486 6.4637 9.92621 12.2188 10.65625 c 7.2456 0.9191 11.276 -3.99472 8.7812 -10.65625 c -1.458 -4.31715 -7.2347 -11.34435 -15.2187 -11.28125 z m -316.25 6.9375 c -5.8012 0 -7.3569 6.98312 -5.7813 11.28125 c 2.0217 5.51486 6.4637 9.89496 12.2188 10.625 c 7.2455 0.9191 11.2759 -3.96347 8.7812 -10.625 c -1.458 -4.31715 -7.2347 -11.34435 -15.2187 -11.28125 z m 41.125 1.4375 c -7.984 -0.0631 -13.7607 6.9641 -15.2188 11.28125 c -2.4947 6.66153 1.5358 11.5441 8.7813 10.625 c 5.7551 -0.73004 10.1971 -5.11014 12.2187 -10.625 c 1.5756 -4.29813 0.02 -11.28125 -5.7812 -11.28125 z m 210.25 14.8125 c 0.2092 -0.0186 0.4109 -0.0113 0.625 0 c 1.7125 0.0904 3.4887 1.13414 3.8125 3.375 c 0.9499 10.94671 7.7897 21.95703 16.0938 28.53125 c 1.9663 1.81723 -0.06 6.73427 -4 5.3125 c -7.0286 -3.55834 -20.4269 -20.20066 -19.3438 -34.84375 c 0.063 -1.38571 1.3479 -2.24515 2.8125 -2.375 z m 30.875 2.6875 c -5.8012 0 -7.3567 6.98312 -5.7813 11.28125 c 2.0218 5.51486 6.4637 9.89496 12.2188 10.625 c 7.2455 0.9191 11.276 -3.96347 8.7812 -10.625 c -1.458 -4.31715 -7.2346 -11.34435 -15.2187 -11.28125 z m 41.125 1.4375 c -7.984 -0.0631 -13.7919 6.9641 -15.25 11.28125 c -2.4947 6.66153 1.567 11.57535 8.8125 10.65625 c 5.7551 -0.73004 10.1971 -5.14139 12.2188 -10.65625 c 1.5754 -4.29813 0.02 -11.28125 -5.7813 -11.28125 z" stroke-linecap="round" />
</g>
		<g transform="matrix(0.59 0 0 0.59 11.35 23.42)"  >
<path style="stroke: none; stroke-width: 1; stroke-dasharray: none; stroke-linecap: butt; stroke-dashoffset: 0; stroke-linejoin: miter; stroke-miterlimit: 4; fill: rgb(212,85,0); fill-rule: nonzero; opacity: 1;"  transform=" translate(-569.46, -621.84)" d="m 581.56929 663.29625 c 0 0 16.061 0.11559 25.4926 -2.24231 c 10.1053 -3.03157 10.4562 -12.04869 10.4562 -12.04869 c 0.7099 -3.57869 -1.4487 -8.9092 -3.787 -11.54838 c -3.9201 -5.4573 -7.1441 -9.58263 -9.3131 -14.4136 c -2.3579 -3.53684 -7.6219 -35.01295 -7.6219 -35.01295 c -0.7656 -5.26835 -2.671 -11.54196 -7.1286 -4.52549 c -6.528 9.30293 -12.0304 13.67704 -9.5442 22.62742 c -0.1182 4.79208 -7.1465 3.36372 -9.7127 2.46356 l -21.4893 -11.75271 c -6.7496 -3.97645 -8.4814 -2.353 -3.0964 3.57275 c 8.038 8.11141 17.9793 20.70948 4.1188 19.26396 c 0 0 -20.9333 -0.98659 -28.6806 1.20288 c 17.0964 3.53188 26.4672 12.87883 26.4672 12.87883 c 0 0 16.372 15.95332 21.6747 23.10378 c 0 0 7.4006 6.43095 12.1643 6.43095 z" stroke-linecap="round" />
</g>
		<g transform="matrix(0.59 0 0 0.59 -28.03 -15.64)"  >
<path style="stroke: none; stroke-width: 1; stroke-dasharray: none; stroke-linecap: butt; stroke-dashoffset: 0; stroke-linejoin: miter; stroke-miterlimit: 4; fill: rgb(212,85,0); fill-rule: nonzero; opacity: 1;"  transform=" translate(-502.2, -555.12)" d="m 501.55519 575.32631 c 0 0 -2.3926 -2.74922 -0.7084 -4.77028 c 0.8421 -2.18947 5.0873 -1.12445 5.0873 -1.12445 c 16.1684 5.22105 49.8527 23.41052 53.2211 25.93683 c 2.5263 1.17895 6.5684 5.55791 10.6105 2.86317 c 0 0 5.8947 -7.07368 -5.5579 -19.53684 c -2.3579 -3.36842 -48.5053 -36.37895 -48.5053 -36.37895 c 0 0 -18.5263 -14.48421 -23.2421 -32.33685 l -4.3789 -11.45263 c 0 0 -11.4527 15.83158 -11.4527 23.57895 c -0.3368 10.44211 12.8 19.03158 12.8 20.21053 c 0.5053 6.06316 -8.2526 4.37894 -8.2526 4.37894 l -26.7789 -3.70526 l 11.7894 11.45263 c 5.7064 5.06674 7.9291 8.14332 0.6737 9.93684 l -15.1564 0.85561 c -4.2689 0.81502 -3.51 2.33242 -1.6701 5.36628 c 1.5865 2.55407 3.6897 4.84167 3.6897 5.736 c 0.1312 3.14997 -12.4203 10.82484 -17.9672 14.9514 c -1.571 1.16873 -2.5802 1.55387 -2.5802 3.91177 c -1.6842 2.86315 31.4947 -6.23158 48.8421 -3.03158 c 21.8948 4.37895 33.6842 12.8 33.6842 12.8 l 10.779 6.73684 l 18.1895 -2.02105 c -6.5684 -9.26316 -43.1158 -34.3579 -43.1158 -34.3579 z" stroke-linecap="round" />
</g>
		<g transform="matrix(0.59 0 0 0.59 -90.78 -34.99)"  >
<path style="stroke: none; stroke-width: 1; stroke-dasharray: none; stroke-linecap: butt; stroke-dashoffset: 0; stroke-linejoin: miter; stroke-miterlimit: 4; fill: rgb(212,85,0); fill-rule: nonzero; opacity: 1;"  transform=" translate(-395.02, -522.07)" d="m 317.30249 570.4421 c 6.0632 -12.12632 41.7684 -29.6421 41.7684 -29.6421 c 0 0 6.9053 -1.68421 3.0316 -4.54737 l -13.1368 -12.8 c -1.752 -2.04432 -1.7785 -4.05129 1.0105 -4.37895 l 31.6632 -2.35789 c 3.3772 -0.19885 4.7936 -2.85074 3.0315 -5.72632 c -2.021 -3.36842 -22.2315 -23.57894 -16.5052 -47.15789 c 0 0 45.4737 37.72631 70.7368 44.46315 l 27.2842 7.41053 c 2.8582 -0.23818 8.2068 22.46976 6.0632 22.23158 l -28.1961 -2.35789 c -3.6918 -0.23819 -5.9934 -0.16843 -6.4986 1.01052 c -0.8421 2.35789 1.6842 5.22105 3.0315 6.4 l 14.8211 12.46316 c 1.042 1.01228 2.021 2.18948 0.6737 2.69474 c -0.2382 0.23818 -5.7205 0.84298 -5.7205 0.84298 l -10.4479 1.17807 c 0 5.22105 3.2 10.27368 5.3894 13.47368 c 2.0211 3.03158 -6.4 6.06316 -6.4 6.06316 c 0 0 -5.221 1.34737 -8.9263 0 c -4.0421 -1.01052 -32.1684 -14.48421 -71.2421 -11.11579 c -13.8105 1.01053 -39.6733 5.75101 -41.4316 1.85263 z" stroke-linecap="round" />
</g>
		<g transform="matrix(0.59 0 0 0.59 -156.41 -59.01)"  >
<path style="stroke: none; stroke-width: 1; stroke-dasharray: none; stroke-linecap: butt; stroke-dashoffset: 0; stroke-linejoin: miter; stroke-miterlimit: 4; fill: rgb(212,85,0); fill-rule: nonzero; opacity: 1;"  transform=" translate(-282.93, -481.03)" d="m 195.35329 407.76789 c 51.2495 38.25145 156.3482 66.47582 156.3482 66.47582 c 4.8278 0.55706 7.4274 7.42747 7.4274 7.42747 l 11.5126 26.3675 c 0 0 -18.7543 5.38492 -24.1393 5.19923 l -64.9903 -17.45455 c -7.9879 0.13309 -9.8437 5.238 -5.1992 8.17022 l 51.9923 12.99806 c 7.056 1.29981 19.6827 15.04062 19.6827 16.34043 c 2.2905 4.17141 -19.3533 16.49218 -27.853 20.98259 c -8.5416 0.55706 -94.3288 -10.39845 -119.2108 -6.12766 l 20.9826 -16.15474 c 0 0 10.7698 -7.24178 6.1277 -9.47002 c -3.5281 -2.7853 -17.4546 -10.95551 -17.4546 -10.95551 l 29.3385 -8.72727 c 7.6203 -3.56928 8.7511 -6.26257 2.2282 -9.28434 l -32.6808 -16.15473 c -0.5571 -3.15668 33.795 -6.12766 33.795 -6.12766 c 3.1641 -1.99912 2.5737 -3.90588 0 -5.5706 c 0 0 -16.1548 -8.17023 -22.4681 -15.04063 c -5.9353 -6.54907 -27.437 -29.56155 -25.4391 -42.89361 z" stroke-linecap="round" />
</g>
</g>
</g>
</svg>